#!OML:ASF I:\salsa\salsa 7_09\Patient 1\Session 1\dancerfemale.ASF
:FULLY-SPECIFIED
:DEGREES
1551
root 23.9687 15.7483 -0.46679 -1005.33 -434.27 -789.221
lowerback 2.29061 9.49262 8.5408
upperback -4.7914 13.2059 4.06111
thorax -5.38872 6.19491 -1.17593
lowerneck 4.63259 -11.7901 -13.7441
upperneck 7.40568 -17.3859 13.7487
head 3.8587 -8.83098 5.70961
rclavicle 6.16302e-014 3.74709e-014
rhumerus 39.4468 -20.7362 -48.8569
rradius 31.5297
rwrist -28.3289
rhand 25.9406 42.9089
rfingers 7.12502
rthumb 50.0233 21.6984
lclavicle 6.16302e-014 3.74709e-014
lhumerus -49.2986 39.3505 14.4289
lradius 105.69
lwrist -27.4712
lhand 3.89547 55.9097
lfingers 7.12502
lthumb 29.3159 443.619
rfemur -0.553433 -8.55895 29.2266
rtibia 26.5837
rfoot 0.455724 -8.874
rtoes -10.4787
lfemur -29.2118 -10.8218 4.548
ltibia 63.216
lfoot -8.8411 12.683
ltoes -14.0857
1552
root 23.9359 15.7609 -0.258465 -1007.02 -435.652 -787.68
lowerback 2.09116 9.32482 7.60683
upperback -4.75268 12.912 3.75285
thorax -5.37151 6.09588 -0.97951
lowerneck 5.02891 -11.8043 -13.6045
upperneck 7.43142 -17.4345 13.5272
head 3.77684 -8.87325 5.64665
rclavicle -8.95929e-015 -3.42904e-014
rhumerus 38.0437 -19.6245 -47.1003
rradius 33.0387
rwrist -32.4806
rhand 28.057 41.8559
rfingers 7.12502
rthumb 51.9519 21.7217
lclavicle -8.95929e-015 -3.42904e-014
lhumerus -47.2626 39.8922 15.2507
lradius 105.793
lwrist -27.4213
lhand 2.668 55.451
lfingers 7.12502
lthumb 28.1433 443.359
rfemur -1.56131 -7.00893 27.389
rtibia 28.6909
rfoot 1.69863 -11.2477
rtoes -8.29128
lfemur -25.8226 -11.6827 3.33678
ltibia 59.4111
lfoot -14.0295 8.42382
ltoes -25.639
1553
root 23.9172 15.7777 -0.0388061 -1009.22 -436.992 -785.563
lowerback 2.10397 9.07728 6.94729
upperback -4.77379 12.5501 3.40124
thorax -5.47206 5.94013 -0.998694
lowerneck 5.45329 -11.7931 -13.4424
upperneck 7.55061 -17.4439 13.139
head 3.69676 -8.89851 5.53413
rclavicle -1.35587e-013 -4.84041e-014
rhumerus 36.922 -18.5526 -45.832
rradius 34.44
rwrist -36.2626
rhand 29.5085 41.58
rfingers 7.12502
rthumb 53.2646 22.2566
lclavicle -1.35587e-013 -4.84041e-014
lhumerus -45.4154 40.5681 16.2797
lradius 105.929
lwrist -27.3199
lhand 1.16176 54.7689
lfingers 7.12502
lthumb 26.7027 442.905
rfemur -3.58966 -5.46639 25.6165
rtibia 32.2278
rfoot 3.26683 -14.2237
rtoes -5.21408
lfemur -23.2552 -11.3668 1.35079
ltibia 55.6053
lfoot -16.7235 6.44532
ltoes -34.5392
1554
root 23.9183 15.8072 0.181573 -1012.14 -438.441 -782.531
lowerback 2.29849 8.77748 6.32466
upperback -4.85727 12.1358 2.9148
thorax -5.70493 5.74717 -1.20169
lowerneck 5.58233 -11.7494 -13.5161
upperneck 8.00736 -17.4362 12.8835
head 3.7959 -8.90672 5.46666
rclavicle -1.55922e-015 4.57205e-015
rhumerus 36.0618 -17.5848 -45.0628
rradius 35.8515
rwrist -39.826
rhand 30.2413 40.8783
rfingers 7.12502
rthumb 53.9238 21.9889
lclavicle -1.55922e-015 4.57205e-015
lhumerus -43.5912 41.3519 17.5081
lradius 106.042
lwrist -27.1731
lhand -0.522937 53.8939
lfingers 7.12502
lthumb 25.0894 442.266
rfemur -6.80838 -4.45219 23.6565
rtibia 37.1529
rfoot 5.59729 -17.3721
rtoes 0.435578
lfemur -21.557 -9.77705 -1.31349
ltibia 52.6642
lfoot -18.4621 6.22776
ltoes -35.6428
1555
root 23.9561 15.7836 0.384661 -1018.94 -440.813 -775.579
lowerback 2.69374 8.47245 4.54175
upperback -4.79032 11.6527 2.12024
thorax -6.04988 5.57364 -1.13775
lowerneck 5.48492 -11.6384 -13.9342
upperneck 8.39093 -17.3645 13.1251
head 3.97418 -8.87579 5.58884
rclavicle -3.61664e-014 2.34566e-014
rhumerus 35.4319 -16.7891 -44.5044
rradius 37.475
rwrist -43.3693
rhand 30.3939 39.2996
rfingers 7.12502
rthumb 54.0607 20.5027
lclavicle -3.61664e-014 2.34566e-014
lhumerus -41.5509 42.3956 19.113
lradius 106.265
lwrist -27.1119
lhand -2.18224 53.2473
lfingers 7.12502
lthumb 23.4986 441.832
rfemur -10.9949 -4.58705 20.345
rtibia 43.2207
rfoot 7.17725 -19.8761
rtoes 4.23764
lfemur -20.6287 -7.69315 -5.57531
ltibia 50.6279
lfoot -19.5032 7.45285
ltoes -36.1205
1556
root 24.0056 15.7308 0.560626 -1039.24 -443.904 -755.402
lowerback 3.45471 8.13439 1.19854
upperback -4.50609 11 1.01367
thorax -6.59729 5.38314 -0.595674
lowerneck 5.47758 -11.6128 -13.5975
upperneck 8.26981 -17.2727 12.8511
head 3.87329 -8.82573 5.46917
rclavicle -6.31141e-014 -1.39149e-015
rhumerus 35.1042 -16.1312 -44.3593
rradius 39.0356
rwrist -46.6819
rhand 30.0877 37.4269
rfingers 7.12502
rthumb 53.7858 18.4451
lclavicle -6.31141e-014 -1.39149e-015
lhumerus -39.5358 43.6364 20.8576
lradius 106.643
lwrist -27.0754
lhand -3.65221 52.7849
lfingers 7.12502
lthumb 22.0879 441.543
rfemur -15.2893 -5.45338 15.5241
rtibia 49.7454
rfoot 6.88053 -21.0578
rtoes 7.17079
lfemur -19.5948 -5.58247 -11.2665
ltibia 48.993
lfoot -20.4264 8.05735
ltoes -34.5189
1557
root 24.0441 15.6672 0.717262 -1086.56 -445.181 -708.496
lowerback 4.58164 7.7791 -2.58517
upperback -4.17591 10.1854 -0.270272
thorax -7.32538 5.12025 -8.84644e-005
lowerneck 5.50482 -11.4306 -13.4688
upperneck 8.16839 -17.0179 12.8975
head 3.79585 -8.69854 5.49188
rclavicle -8.82045e-014 -4.77083e-015
rhumerus 35.0187 -15.5094 -44.9414
rradius 40.3664
rwrist -49.3952
rhand 29.8164 35.9986
rfingers 7.12502
rthumb 53.5419 16.8555
lclavicle -8.82045e-014 -4.77083e-015
lhumerus -37.6209 44.6909 22.4478
lradius 107.009
lwrist -26.9874
lhand -5.20228 51.9853
lfingers 7.12502
lthumb 20.599 440.912
rfemur -19.2563 -6.82542 10.2917
rtibia 56.0185
rfoot 6.02666 -21.8761
rtoes 9.62766
lfemur -18.0957 -3.56807 -17.1705
ltibia 47.3828
lfoot -21.3158 7.7456
ltoes -33.0587
1558
root 24.0647 15.6322 0.866943 -1122.95 -443.456 -672.732
lowerback 5.87512 7.49003 -5.66155
upperback -3.87413 9.38601 -1.43053
thorax -8.04243 4.82967 0.362063
lowerneck 5.65893 -11.149 -13.4545
upperneck 8.07475 -16.6678 13.118
head 3.71091 -8.53115 5.59986
rclavicle -1.5103e-013 -1.33186e-014
rhumerus 35.0249 -14.7573 -45.8529
rradius 41.5589
rwrist -51.4433
rhand 29.3723 35.2347
rfingers 7.12502
rthumb 53.1417 15.8325
lclavicle -1.5103e-013 -1.33186e-014
lhumerus -35.5847 45.4301 24.2014
lradius 107.319
lwrist -27.0737
lhand -7.05617 50.9979
lfingers 7.12502
lthumb 18.8168 440.108
rfemur -22.6992 -8.32902 5.92046
rtibia 61.239
rfoot 4.63989 -21.6633
rtoes 8.29258
lfemur -15.9876 -1.77859 -21.9846
ltibia 45.3373
lfoot -22.1683 6.44995
ltoes -32.5411
1559
root 24.0899 15.6279 1.0085 -1131.32 -442.836 -664.602
lowerback 6.79017 7.16214 -5.98153
upperback -3.84604 8.80376 -1.92522
thorax -8.47521 4.53863 -0.01275
lowerneck 5.74014 -10.8314 -13.3866
upperneck 8.0059 -16.2486 13.2344
head 3.62208 -8.32667 5.66767
rclavicle 6.06852e-014 -1.82882e-014
rhumerus 35.2885 -13.8478 -46.9621
rradius 42.4065
rwrist -53.1898
rhand 28.2842 34.6202
rfingers 7.12502
rthumb 52.1579 14.6089
lclavicle 6.06852e-014 -1.82882e-014
lhumerus -33.4107 46.0631 26.164
lradius 107.555
lwrist -27.2932
lhand -8.8518 50.2766
lfingers 7.12502
lthumb 17.0891 439.545
rfemur -26.3873 -9.12221 5.19172
rtibia 65.0269
rfoot 3.01222 -21.3879
rtoes 5.07042
lfemur -14.4449 0.0504529 -23.3738
ltibia 43.1906
lfoot -22.9428 4.36176
ltoes -32.2711
